<?xml version="1.0" encoding="utf-8"?>
<!-- Generator: Adobe Illustrator 24.3.0, SVG Export Plug-In . SVG Version: 6.00 Build 0)  -->
<svg version="1.1" id="Layer_1" xmlns="http://www.w3.org/2000/svg" xmlns:xlink="http://www.w3.org/1999/xlink" x="0px" y="0px"
	 viewBox="0 0 400 400" style="enable-background:new 0 0 400 400;" xml:space="preserve">
<style type="text/css">
	.st0{fill:#EA907A;}
</style>
<g id="Layer_1_1_">
	<g>
		<path class="st0" d="M337.14,129.15c3.08,9.79,5.36,19.9,6.8,30.26c6.82,49.03-5.91,97.8-35.85,137.31
			c-29.96,39.54-73.56,65.08-122.77,71.93c-8.61,1.2-17.35,1.81-25.98,1.81c-12.91,0-25.65-1.32-38.11-3.94
			c29.9-5.67,58.29-15.96,84.56-30.69c29.42-16.5,54.97-37.83,75.92-63.42c21.1-25.76,36.5-54.53,45.78-85.52
			C333.16,167.91,336.38,148.6,337.14,129.15 M269.38,0.54c19.2,26.52,32.23,57.54,36.96,91.6
			c16.56,119.03-74.38,230.04-203.13,247.96c-11.89,1.66-23.69,2.46-35.33,2.46c-21.43,0-42.3-2.72-62.16-7.86
			c39.47,40.36,94.41,64.77,153.61,64.77c9.89,0,19.9-0.68,29.97-2.08c117.58-16.36,199.67-124.69,183.35-241.96
			C363.31,88.2,323.66,32.64,269.38,0.54L269.38,0.54z"/>
	</g>
</g>
<g id="Layer_2_1_">
</g>
</svg>
