<?xml version="1.0" encoding="utf-8"?>
<!-- Generator: Adobe Illustrator 24.3.0, SVG Export Plug-In . SVG Version: 6.00 Build 0)  -->
<svg version="1.1" id="Layer_1" xmlns="http://www.w3.org/2000/svg" xmlns:xlink="http://www.w3.org/1999/xlink" x="0px" y="0px"
	 viewBox="0 0 400 400" style="enable-background:new 0 0 400 400;" xml:space="preserve">
<style type="text/css">
	.st0{fill:#F7DEDC;}
	.st1{fill:#EA907A;}
</style>
<path class="st0" d="M339.06,400H60.94C27.42,400,0,372.58,0,339.06V60.94C0,27.42,27.42,0,60.94,0h278.11
	C372.58,0,400,27.42,400,60.94v278.11C400,372.58,372.58,400,339.06,400z"/>
<g>
	<path class="st1" d="M199.08,123.93c41.94,0,76.07,34.13,76.07,76.07s-34.13,76.07-76.07,76.07s-76.07-34.13-76.07-76.07
		S157.13,123.93,199.08,123.93 M199.08,62.36c-76.01,0-137.63,61.62-137.63,137.63s61.62,137.63,137.63,137.63
		S336.71,276.01,336.71,200S275.09,62.36,199.08,62.36L199.08,62.36z"/>
</g>
<g>
	<path class="st1" d="M70.49,167.09l-52.39,7.75c-0.72,1.62-1.11,3.4-1.11,5.28v39.91c0,1.89,0.41,3.68,1.15,5.3l51.18,7.56h0.45
		c7.19,0,13.04-5.83,13.04-13.04v-39.74C82.8,173.17,77.34,167.48,70.49,167.09L70.49,167.09z"/>
</g>
<g>
	<path class="st1" d="M327.76,167.09h-0.45c-7.19,0-13.04,5.83-13.04,13.04v39.74c0,6.95,5.46,12.64,12.31,13.02l52.39-7.75
		c0.72-1.61,1.11-3.39,1.11-5.27v-39.91c0-1.89-0.41-3.68-1.15-5.3L327.76,167.09L327.76,167.09z"/>
</g>
<g>
	<path class="st1" d="M218.95,17.91h-39.91c-1.89,0-3.68,0.41-5.3,1.15l-7.56,51.18v0.45c0,7.19,5.83,13.04,13.04,13.04h39.74
		c6.95,0,12.64-5.46,13.02-12.31l-7.75-52.39C222.62,18.3,220.83,17.91,218.95,17.91L218.95,17.91z"/>
</g>
<g>
	<path class="st1" d="M83.89,49.14c-1.64,0.63-3.18,1.61-4.51,2.94L51.15,80.3c-1.34,1.34-2.32,2.89-2.94,4.56l30.85,41.54
		l0.32,0.32c2.55,2.55,5.88,3.82,9.22,3.82c3.34,0,6.67-1.27,9.22-3.82l28.1-28.1c4.92-4.92,5.08-12.8,0.5-17.92L83.89,49.14
		L83.89,49.14z"/>
</g>
<g>
	<path class="st1" d="M314.26,49.14l-42.52,31.57c-4.58,5.12-4.41,13,0.5,17.92l28.1,28.1c2.55,2.55,5.88,3.82,9.22,3.82
		c3.34,0,6.68-1.28,9.22-3.82l0.32-0.32l30.85-41.54c-0.62-1.66-1.6-3.23-2.94-4.56l-28.23-28.23
		C317.44,50.75,315.91,49.77,314.26,49.14L314.26,49.14z"/>
</g>
<g>
	<path class="st1" d="M307.05,266.87c-3.34,0-6.67,1.27-9.22,3.82l-28.1,28.1c-4.92,4.92-5.08,12.8-0.5,17.92l42.52,31.57
		c1.64-0.63,3.18-1.61,4.51-2.94l28.23-28.23c1.34-1.34,2.32-2.89,2.94-4.56l-30.85-41.54l-0.32-0.32
		C313.73,268.14,310.39,266.87,307.05,266.87L307.05,266.87z"/>
</g>
<g>
	<path class="st1" d="M91.72,272.21c-3.34,0-6.68,1.28-9.22,3.82l-0.32,0.32l-30.85,41.53c0.62,1.66,1.6,3.23,2.94,4.56l28.23,28.23
		c1.33,1.33,2.88,2.32,4.51,2.94l42.52-31.57c4.58-5.12,4.41-13-0.5-17.92l-28.1-28.1C98.39,273.48,95.06,272.21,91.72,272.21
		L91.72,272.21z"/>
</g>
<g>
	<path class="st1" d="M218.94,316.27H179.2c-6.95,0-12.64,5.46-13.02,12.31l7.75,52.39c1.61,0.72,3.39,1.11,5.27,1.11h39.91
		c1.89,0,3.68-0.41,5.3-1.15l7.56-51.18v-0.45C231.98,322.11,226.14,316.27,218.94,316.27L218.94,316.27z"/>
</g>
</svg>
