<?xml version="1.0" encoding="utf-8"?>
<!-- Generator: Adobe Illustrator 24.3.0, SVG Export Plug-In . SVG Version: 6.00 Build 0)  -->
<svg version="1.1" id="Layer_1" xmlns="http://www.w3.org/2000/svg" xmlns:xlink="http://www.w3.org/1999/xlink" x="0px" y="0px"
	 viewBox="0 0 400 400" style="enable-background:new 0 0 400 400;" xml:space="preserve">
<style type="text/css">
	.st0{fill:#F7DEDC;}
	.st1{fill:#EA907A;}
</style>
<path class="st0" d="M339.06,400H60.94C27.42,400,0,372.58,0,339.06V60.94C0,27.42,27.42,0,60.94,0h278.11
	C372.58,0,400,27.42,400,60.94v278.11C400,372.58,372.58,400,339.06,400z"/>
<g>
	<path class="st1" d="M355.68,366.2c0,1.11-0.01,2.23-0.03,3.33H44.35c-0.02-1.11-0.03-2.22-0.03-3.33
		c0-92,69.7-166.59,155.68-166.59S355.68,274.19,355.68,366.2z"/>
</g>
<circle class="st1" cx="200" cy="109.64" r="79.17"/>
</svg>
